HIERARCHY
ROOT Hips
{
	OFFSET 0.00000 0.00000 0.00000
	CHANNELS 6 Xposition Yposition Zposition Zrotation Yrotation Xrotation 
	JOINT LHipJoint
	{
		OFFSET 0 0 0
		CHANNELS 3 Zrotation Yrotation Xrotation
		JOINT LeftUpLeg
		{
			OFFSET 1.36306 -1.79463 0.83929
			CHANNELS 3 Zrotation Yrotation Xrotation
			JOINT LeftLeg
			{
				OFFSET 2.44811 -6.72613 0.00000
				CHANNELS 3 Zrotation Yrotation Xrotation
				JOINT LeftFoot
				{
					OFFSET 2.56220 -7.03959 0.00000
					CHANNELS 3 Zrotation Yrotation Xrotation
					JOINT LeftToeBase
					{
						OFFSET 0.15764 -0.43311 2.32255
						CHANNELS 3 Zrotation Yrotation Xrotation
						End Site
						{
							OFFSET 0.00000 -0.00000 1.18966
						}
					}
				}
			}
		}
	}
	JOINT RHipJoint
	{
		OFFSET 0 0 0
		CHANNELS 3 Zrotation Yrotation Xrotation
		JOINT RightUpLeg
		{
			OFFSET -1.30552 -1.79463 0.83929
			CHANNELS 3 Zrotation Yrotation Xrotation
			JOINT RightLeg
			{
				OFFSET -2.54253 -6.98555 0.00000
				CHANNELS 3 Zrotation Yrotation Xrotation
				JOINT RightFoot
				{
					OFFSET -2.56826 -7.05623 0.00000
					CHANNELS 3 Zrotation Yrotation Xrotation
					JOINT RightToeBase
					{
						OFFSET -0.16473 -0.45259 2.36315
						CHANNELS 3 Zrotation Yrotation Xrotation
						End Site
						{
							OFFSET -0.00000 -0.00000 1.21082
						}
					}
				}
			}
		}
	}
	JOINT LowerBack
	{
		OFFSET 0 0 0
		CHANNELS 3 Zrotation Yrotation Xrotation
		JOINT Spine
		{
			OFFSET 0.02827 2.03559 -0.19338
			CHANNELS 3 Zrotation Yrotation Xrotation
			JOINT Spine1
			{
				OFFSET 0.05672 2.04885 -0.04275
				CHANNELS 3 Zrotation Yrotation Xrotation
				JOINT Neck
				{
					OFFSET 0 0 0
					CHANNELS 3 Zrotation Yrotation Xrotation
					JOINT Neck1
					{
						OFFSET -0.05417 1.74624 0.17202
						CHANNELS 3 Zrotation Yrotation Xrotation
						JOINT Head
						{
							OFFSET 0.10407 1.76136 -0.12397
							CHANNELS 3 Zrotation Yrotation Xrotation
							End Site
							{
								OFFSET 0.03720 1.77044 -0.06241
							}
						}
					}
				}
				JOINT LeftShoulder
				{
					OFFSET 0 0 0
					CHANNELS 3 Zrotation Yrotation Xrotation
					JOINT LeftArm
					{
						OFFSET 3.36241 1.20089 -0.31121
						CHANNELS 3 Zrotation Yrotation Xrotation
						JOINT LeftForeArm
						{
							OFFSET 4.98300 -0.00000 -0.00000
							CHANNELS 3 Zrotation Yrotation Xrotation
							JOINT LeftHand
							{
								OFFSET 3.48356 -0.00000 -0.00000
								CHANNELS 3 Zrotation Yrotation Xrotation
								JOINT LeftFingerBase
								{
									OFFSET 0 0 0
									CHANNELS 3 Zrotation Yrotation Xrotation
									JOINT LeftHandIndex1
									{
										OFFSET 0.71526 -0.00000 -0.00000
										CHANNELS 3 Zrotation Yrotation Xrotation
										End Site
										{
											OFFSET 0.57666 -0.00000 -0.00000
										}
									}
								}
								JOINT LThumb
								{
									OFFSET 0 0 0
									CHANNELS 3 Zrotation Yrotation Xrotation
									End Site
									{
										OFFSET 0.58547 -0.00000 0.58547
									}
								}
							}
						}
					}
				}
				JOINT RightShoulder
				{
					OFFSET 0 0 0
					CHANNELS 3 Zrotation Yrotation Xrotation
					JOINT RightArm
					{
						OFFSET -3.13660 1.37405 -0.40465
						CHANNELS 3 Zrotation Yrotation Xrotation
						JOINT RightForeArm
						{
							OFFSET -5.24190 -0.00000 -0.00000
							CHANNELS 3 Zrotation Yrotation Xrotation
							JOINT RightHand
							{
								OFFSET -3.44417 -0.00000 -0.00000
								CHANNELS 3 Zrotation Yrotation Xrotation
								JOINT RightFingerBase
								{
									OFFSET 0 0 0
									CHANNELS 3 Zrotation Yrotation Xrotation
									JOINT RightHandIndex1
									{
										OFFSET -0.62253 -0.00000 -0.00000
										CHANNELS 3 Zrotation Yrotation Xrotation
										End Site
										{
											OFFSET -0.50190 -0.00000 -0.00000
										}
									}
								}
								JOINT RThumb
								{
									OFFSET 0 0 0
									CHANNELS 3 Zrotation Yrotation Xrotation
									End Site
									{
										OFFSET -0.50956 -0.00000 0.50956
									}
								}
							}
						}
					}
				}
			}
		}
	}
}
MOTION
Frames: 6
Frame Time: .0083333
0 16.3927 0 -5.7093 -1.9091 11.9442 0.0000 0.0000 0.0000 -6.9509 0.1668 -28.5818 9.5203 17.1311 57.8725 3.0391 -14.7853 -31.6726 0.2414 -3.1617 -8.7292 0.0000 0.0000 0.0000 23.4620 4.4942 -26.0514 -9.4200 -17.0706 57.5317 -3.1311 -1.7220 -34.1440 -0.1602 2.5789 -7.1086 1.7209 0.9942 21.6221 3.8799 2.0256 3.7621 2.6820 0.9652 -8.0568 -5.0473 -3.3652 -9.1255 10.2100 -3.0527 -18.0838 4.0241 -1.6295 -3.6296 0.0000 0.0000 0.0000 -86.6147 10.1485 29.9569 27.0491 -38.2260 -9.5295 -0.0000 0.0000 -9.7592 33.5932 -18.9513 -12.1732 -7.1250 0.0000 -0.0000 3.4352 7.6105 -2.9554 0.0000 0.0000 0.0000 83.9799 -15.8413 23.5369 -35.3601 45.0676 -15.0677 0.0000 -0.0000 -13.7873 -25.2671 -9.8262 4.6053 7.1250 -0.0000 -0.0000 1.5287 -40.8173 0.1577
0 16.6134 0 -5.4983 -1.9100 11.0680 0.0000 0.0000 0.0000 -7.4886 0.8786 -25.3549 8.5120 16.4832 54.3867 2.6052 -14.7945 -29.3739 0.2481 -3.2051 -8.8503 0.0000 0.0000 0.0000 23.3780 3.0026 -23.1904 -8.4599 -16.4473 54.2027 -2.7484 -1.1417 -31.8135 -0.1951 2.8448 -7.8469 1.6309 0.8924 20.9124 3.8776 1.8588 3.5177 2.7814 0.8911 -7.9433 -5.1925 -3.3093 -8.9271 10.1336 -3.0632 -16.7647 3.9948 -1.6048 -3.2595 0.0000 0.0000 0.0000 -86.8828 10.9037 29.5852 24.9844 -36.1880 -8.2807 -0.0000 0.0000 -8.7767 31.6886 -18.4247 -11.0405 -7.1250 0.0000 -0.0000 2.2978 8.6134 -1.9293 0.0000 0.0000 0.0000 83.8064 -16.8949 23.8228 -33.0450 43.3646 -13.4529 0.0000 -0.0000 -12.7097 -26.0376 -10.4404 5.0592 7.1250 -0.0000 -0.0000 0.9036 -41.5675 0.0765
0 16.8379 0 -5.5574 -1.9564 10.1698 0.0000 0.0000 0.0000 -7.6570 1.6340 -22.1575 7.5575 15.7839 50.9527 2.1417 -14.6376 -26.7344 0.2878 -3.4500 -9.5343 0.0000 0.0000 0.0000 23.5145 1.7419 -20.3633 -7.5627 -15.7880 50.9717 -2.3107 -0.8243 -29.0797 -0.2440 3.1785 -8.7761 1.7797 0.8388 20.1869 3.9402 1.8046 3.3964 2.7819 0.8643 -7.6828 -5.2027 -3.2846 -8.9697 9.9487 -3.1246 -15.4629 3.9081 -1.6055 -2.8620 -0.0000 0.0000 0.0000 -87.1489 11.2223 28.9211 22.9091 -33.9893 -7.0874 -0.0000 0.0000 -6.9639 29.6087 -16.8252 -9.3410 -7.1250 0.0000 -0.0000 1.1535 10.8043 -0.9170 -0.0000 0.0000 0.0000 83.7159 -17.4040 23.7335 -30.5249 41.3391 -11.7548 0.0000 -0.0000 -11.2720 -25.3776 -10.8897 5.1209 7.1250 -0.0000 -0.0000 1.5399 -41.9952 0.1142
0 17.0579 0 -5.6397 -2.0239 9.1687 0.0000 0.0000 0.0000 -7.7560 2.2579 -18.9087 6.6833 15.0593 47.6663 1.6716 -13.9594 -23.7323 0.4340 -4.2274 -11.7174 0.0000 0.0000 0.0000 23.5794 0.7334 -17.4995 -6.7551 -15.1221 47.9419 -1.8564 -0.3437 -25.9139 -0.2488 3.2096 -8.8628 2.0756 0.8036 19.5180 3.9131 1.7966 3.2704 2.5880 0.8548 -7.4501 -5.1194 -3.3653 -9.1061 9.5305 -3.3995 -13.5615 4.0858 -1.6817 -2.5679 -0.0000 -0.0000 0.0000 -87.2220 11.5626 27.6124 20.9905 -31.8172 -6.0449 -0.0000 0.0000 -3.3111 27.1271 -15.3300 -7.7136 -7.1250 0.0000 -0.0000 -0.3346 12.8603 0.2517 -0.0000 -0.0000 0.0000 83.7872 -17.7170 23.3545 -28.0230 39.1374 -10.1382 0.0000 -0.0000 -9.5825 -23.8759 -11.4963 5.0415 7.1250 -0.0000 -0.0000 2.9611 -42.5004 0.1828
0 17.2807 0 -5.5832 -2.1741 8.3192 0.0000 0.0000 0.0000 -8.0015 2.6448 -15.9692 5.8930 14.3239 44.5508 1.1672 -12.9791 -20.0499 0.6055 -4.9808 -13.8537 0.0000 0.0000 0.0000 23.3925 0.0282 -14.8842 -6.0310 -14.4584 45.1062 -1.3404 -0.1990 -21.9724 -0.3391 3.7421 -10.3523 2.3122 0.7250 18.8278 3.7833 1.7153 2.9727 2.3369 0.8101 -7.3869 -5.1433 -3.4019 -9.0679 9.4631 -3.5583 -11.7359 4.0083 -1.7357 -1.9370 0.0000 -0.0000 0.0000 -87.2631 12.4292 27.0601 19.4137 -29.9295 -5.2357 -0.0000 0.0000 -3.0252 24.9533 -14.3903 -6.5965 -7.1250 0.0000 -0.0000 -1.7223 14.1838 1.2484 0.0000 -0.0000 0.0000 83.8589 -18.3027 22.7613 -25.7971 37.0076 -8.7652 0.0000 -0.0000 -7.0204 -21.9462 -13.0644 5.2043 7.1250 -0.0000 -0.0000 4.9482 -43.9702 0.1261
0 17.5244 0 -5.4827 -2.5014 7.7026 0.0000 0.0000 0.0000 -8.3312 2.9450 -13.3401 5.1753 13.5785 41.5745 0.6793 -11.9338 -15.8048 0.7044 -5.3645 -14.9512 0.0000 0.0000 0.0000 23.0617 -0.1751 -12.5643 -5.3843 -13.8039 42.4575 -0.8386 -0.3712 -17.4459 -0.4865 4.4725 -12.4101 2.4174 0.6947 17.8713 3.7058 1.6630 2.6250 2.2115 0.7837 -7.2370 -5.2433 -3.3266 -8.9803 9.3170 -3.5588 -10.0408 3.9358 -1.7097 -1.3851 0.0000 -0.0000 0.0000 -87.5044 13.1997 25.7843 17.8017 -27.9025 -4.4561 -0.0000 0.0000 -1.9194 22.6044 -14.3225 -5.8805 -7.1250 0.0000 -0.0000 -3.3143 14.5387 2.3802 0.0000 -0.0000 0.0000 83.7854 -18.9150 22.7156 -23.6006 34.7391 -7.4778 0.0000 -0.0000 -6.7436 -22.1587 -13.1393 5.2891 7.1250 -0.0000 -0.0000 4.7675 -44.0744 0.1092
